# xmcd
#
# Track frame offsets:
#	183
#	10045
#	23170
#	35768
#	57185
#	83365
#	94298
#	106485
#	139875
#	158763
#	181428
#	192608
#	203323
#	216218
#	228558
#
# Disc length: 3233
#
# Revision: 1
# Processed by: cddbd v1.5.1PL0 Copyright (c) Steve Scherf et al.
# Submitted via: EasyCDDAExtractor 5.0.5.1
# Normalized: r0:DSETVAR1
#
DISCID=c50c9f0f
DTITLE=Various Artist - This is Blues
DYEAR=1900
DGENRE=Blues
TTITLE0=Koko Taylor - Love you like a woman
TTITLE1=Muddy Waters - Mannish Boy
TTITLE2=Rocky Hill and Johnny Winters - Bad Girl Blues
TTITLE3=Vargas Blues Band - Blues Latino
TTITLE4=Albert King - Angel of Mercy
TTITLE5=Howlin'Wolf - Little Red Rooster
TTITLE6=Big Joe Williams - Ride in my new car
TTITLE7=John Lee Hooker - Tupelo
TTITLE8=Mick Taylor and Tonky Blues Band - Blues runs down my leg
TTITLE9=Jerry Lee Lewis - Whole Lotta Shakin'goin'on
TTITLE10=Bo Diddley - Same
TTITLE11=Arthur "Big Boy" Crudup - That's all right Mama
TTITLE12=Robert Cray - Too many cooks
TTITLE13=Fats Domino - Blue Monday
TTITLE14=Chuck Berry - In the wee wee hours
EXTD=
EXTT0=
EXTT1=
EXTT2=
EXTT3=
EXTT4=
EXTT5=
EXTT6=
EXTT7=
EXTT8=
EXTT9=
EXTT10=
EXTT11=
EXTT12=
EXTT13=
EXTT14=
PLAYORDER=
